<svg id="Capa_1" enable-background="new 0 0 512 512" height="512" viewBox="0 0 512 512" width="512" xmlns="http://www.w3.org/2000/svg"><g><g><path d="m256 35.557h56.113v40.081h-56.113z" fill="#ff8086"/><path d="m256 35.557h24.048v40.081h-24.048z" fill="#e5646e"/><path d="m472.435 179.847h-432.87l-32.065 72.145h497z" fill="#ff8086"/><path d="m18.188 227.944-10.688 24.048h497l-10.688-24.048z" fill="#e5646e"/><path d="m488.468 476.444h-464.936v-224.452h104.21l128.258-128.258 128.259 128.258h104.209z" fill="#ffc269"/><path d="m207.903 372.234h96.194v88.177h-96.194z" fill="#c38c66"/><circle cx="256" cy="268.024" fill="#fff0af" r="48.097"/><circle cx="256" cy="268.024" fill="#fff" r="24.048"/><path d="m191.871 444.379h128.258v32.065h-128.258z" fill="#c8c5c9"/><path d="m384.26 251.992-128.26-128.258-128.259 128.258h-104.209v224.452h24.048v-184.371c0-8.854 7.178-16.032 16.032-16.032h61.998c8.565 0 16.774-3.427 22.797-9.516l107.593-108.781 107.592 108.78c6.023 6.09 14.232 9.516 22.797 9.516h102.079v-24.048z" fill="#ffa95f"/><path d="m344.177 292.073h112.226v48.097h-112.226z" fill="#edf4ff"/><path d="m368.226 300.089v-8.016h-24.048v48.097h112.226v-24.048h-72.145c-8.855-.001-16.033-7.179-16.033-16.033z" fill="#dbeaff"/><path d="m344.177 372.234h112.226v48.097h-112.226z" fill="#edf4ff"/><path d="m368.226 380.25v-8.016h-24.048v48.097h112.226v-24.048h-72.145c-8.855-.001-16.033-7.179-16.033-16.033z" fill="#dbeaff"/><path d="m55.597 292.073h112.226v48.097h-112.226z" fill="#edf4ff"/><path d="m79.645 300.089v-8.016h-24.048v48.097h112.226v-24.048h-72.146c-8.854-.001-16.032-7.179-16.032-16.033z" fill="#dbeaff"/><path d="m55.597 372.234h112.226v34.099h-112.226z" fill="#edf4ff"/><path d="m79.645 380.25v-8.016h-24.048v48.097h112.226v-24.048h-72.146c-8.854-.001-16.032-7.179-16.032-16.033z" fill="#dbeaff"/></g><g><path d="m504.5 468.943h-8.532v-209.451h8.532c2.539 0 4.905-1.284 6.289-3.413s1.596-4.813.565-7.133l-32.064-72.145c-1.204-2.708-3.89-4.454-6.854-4.454h-157.217l-51.719-51.72v-37.49h48.613c4.142 0 7.5-3.358 7.5-7.5v-40.08c0-4.142-3.358-7.5-7.5-7.5h-56.113c-4.142 0-7.5 3.358-7.5 7.5v85.071l-51.72 51.719h-157.216c-2.964 0-5.65 1.746-6.854 4.454l-32.064 72.145c-1.031 2.32-.818 5.004.565 7.133s3.75 3.413 6.289 3.413h8.532v209.452h-8.532c-4.142 0-7.5 3.358-7.5 7.5s3.358 7.5 7.5 7.5h497c4.142 0 7.5-3.358 7.5-7.5s-3.358-7.501-7.5-7.501zm-199.887-400.806h-41.113v-25.08h41.113zm-260.175 119.21h137.342l-57.145 57.145h-105.594zm-13.406 72.145h96.709c1.989 0 3.897-.79 5.303-2.197l122.956-122.955 122.955 122.955c1.406 1.407 3.314 2.197 5.303 2.197h56.113c4.142 0 7.5-3.358 7.5-7.5s-3.358-7.5-7.5-7.5h-53.006l-57.145-57.145h137.342l25.398 57.145h-20.524c-4.142 0-7.5 3.358-7.5 7.5s3.358 7.5 7.5 7.5h8.532v209.452h-153.339v-24.564c0-4.142-3.358-7.5-7.5-7.5h-8.532v-64.645c0-4.142-3.358-7.5-7.5-7.5h-96.193c-4.142 0-7.5 3.358-7.5 7.5v64.645h-8.532c-4.142 0-7.5 3.358-7.5 7.5v24.564h-153.34zm265.565 120.242v57.145h-33.097v-57.145zm-48.097 57.145h-33.097v-57.145h33.097zm64.129 15v17.064h-113.258v-17.064z"/><path d="m256 323.621c30.656 0 55.597-24.94 55.597-55.597s-24.94-55.597-55.597-55.597-55.597 24.941-55.597 55.597 24.941 55.597 55.597 55.597zm0-96.194c22.385 0 40.597 18.212 40.597 40.597s-18.212 40.597-40.597 40.597-40.597-18.211-40.597-40.597 18.212-40.597 40.597-40.597z"/><path d="m256 291.557c4.142 0 7.5-3.358 7.5-7.5v-11.397l11.886-5.943c3.705-1.852 5.207-6.357 3.354-10.062-1.852-3.705-6.357-5.208-10.062-3.354l-16.032 8.016c-2.541 1.27-4.146 3.867-4.146 6.708v16.032c0 4.142 3.358 7.5 7.5 7.5z"/><path d="m167.823 364.734h-112.226c-4.142 0-7.5 3.358-7.5 7.5v48.097c0 4.142 3.358 7.5 7.5 7.5h16.035c4.142 0 7.5-3.358 7.5-7.5s-3.358-7.5-7.5-7.5h-8.535v-33.097h41.113v33.097h-.515c-4.142 0-7.5 3.358-7.5 7.5s3.358 7.5 7.5 7.5h64.128c4.142 0 7.5-3.358 7.5-7.5v-48.097c0-4.142-3.358-7.5-7.5-7.5zm-7.5 48.097h-41.113v-33.097h41.113z"/><path d="m167.823 284.573h-112.226c-4.142 0-7.5 3.358-7.5 7.5v48.097c0 4.142 3.358 7.5 7.5 7.5h112.226c4.142 0 7.5-3.358 7.5-7.5v-48.097c0-4.142-3.358-7.5-7.5-7.5zm-104.726 15h41.113v33.097h-41.113zm97.226 33.096h-41.113v-33.097h41.113z"/><path d="m344.177 427.831h112.226c4.142 0 7.5-3.358 7.5-7.5v-48.097c0-4.142-3.358-7.5-7.5-7.5h-112.226c-4.142 0-7.5 3.358-7.5 7.5v48.097c0 4.142 3.358 7.5 7.5 7.5zm104.726-15h-41.113v-33.097h41.113zm-97.226-33.097h41.113v33.097h-41.113z"/><path d="m344.177 347.669h112.226c4.142 0 7.5-3.358 7.5-7.5v-48.097c0-4.142-3.358-7.5-7.5-7.5h-112.226c-4.142 0-7.5 3.358-7.5 7.5v48.097c0 4.143 3.358 7.5 7.5 7.5zm104.726-15h-41.113v-33.097h41.113zm-97.226-33.096h41.113v33.097h-41.113z"/></g></g></svg>