<svg id="Layer_1" enable-background="new 0 0 512 512" height="512" viewBox="0 0 512 512" width="512" xmlns="http://www.w3.org/2000/svg"><g><g><g><path d="m484.001 215.66h-456l30-169.38h396z" fill="#ba7b58"/><path d="m484.001 215.66h-26.74l-30.01-169.38h26.75z" fill="#9b5a46"/></g><path d="m484.501 245.66v228.83h-457v-228.83h145.07v-124.89l83.43-73.33 83.74 73.33v124.89z" fill="#85ddbd"/><path d="m180.111 226.13v34.11c0 4.65-3.77 8.42-8.41 8.42h-144.2v-23h145.07v-19.53z" fill="#67c1aa"/><path d="m484.501 245.66v228.83h-27v-205.83h-129.729c-4.971 0-9.001-4.03-9.001-9.001v-127.259l-62.77-54.96-83.43 73.33v-30l83.43-73.33 83.74 73.33v124.89z" fill="#67c1aa"/><g><path d="m221.001 307.603h70v166.609h-70z" fill="#ffd071"/><path d="m221.001 341.121h70v133.092h-70z" fill="#fff"/></g><g fill="#ffd071"><path d="m85.501 307.603h70v100.038h-70z"/><path d="m356.501 307.603h70v100.038h-70z"/><path d="m221.001 141.092h70v66.525h-70z"/></g><path d="m95.501 7.5h68.253v38.78h-68.253z" fill="#61798e"/><g><path d="m504.501 474.481v30.02h-496.485v-30.02h96.903c10.13 0 19.97-3.74 27.32-10.71 10.02-9.49 29.11-15.91 51.01-15.91s40.99 6.42 51 15.91c7.36 6.97 17.2 10.71 27.33 10.71z" fill="#dff0f7"/><path d="m504.501 474.481v15.92l-259.012-.6c-8.26 0-16.29-3.05-22.29-8.74-8.17-7.75-23.74-12.98-41.61-12.98s-33.44 5.23-41.61 12.98c-6 5.69-14.03 8.74-22.29 8.74h-109.673v-15.32h96.903c10.13 0 19.97-3.74 27.32-10.71 10.02-9.49 29.11-15.91 51.01-15.91s40.99 6.42 51 15.91c7.36 6.97 17.2 10.71 27.33 10.71z" fill="#c5dbe8"/></g><g><g fill="#dff0f7"><path d="m7.501 215.66h165.07v30h-165.07z"/><path d="m339.741 215.66h164.76v30h-164.76z"/><path d="m379.861 116.36-9.92 11.28-9.89 11.25-104.05-91.45-104.05 91.45-9.89-11.25-9.92-11.28 123.86-108.86z"/></g><path d="m369.941 127.64-9.89 11.25-104.05-91.45-104.05 91.45-9.89-11.25 113.94-100.14z" fill="#c5dbe8"/><path d="m7.501 230.66h165.07v15h-165.07z" fill="#c5dbe8"/><path d="m339.741 230.66h164.76v15h-164.76z" fill="#c5dbe8"/></g></g><g><path d="m251 415.141h10c4.142 0 7.5-3.358 7.5-7.5s-3.358-7.5-7.5-7.5h-10c-4.142 0-7.5 3.358-7.5 7.5s3.358 7.5 7.5 7.5z"/><path d="m85.5 300.103c-4.142 0-7.5 3.358-7.5 7.5v100.038c0 4.142 3.358 7.5 7.5 7.5h70c4.142 0 7.5-3.358 7.5-7.5v-100.038c0-4.142-3.358-7.5-7.5-7.5zm27.5 100.038h-20v-18.513h20zm0-33.512h-20v-18.013h20zm0-33.013h-20v-18.513h20zm35 66.525h-20v-18.513h20zm0-33.512h-20v-18.013h20zm0-33.013h-20v-18.513h20z"/><path d="m356.5 300.103c-4.142 0-7.5 3.358-7.5 7.5v100.038c0 4.142 3.358 7.5 7.5 7.5h70c4.142 0 7.5-3.358 7.5-7.5v-100.038c0-4.142-3.358-7.5-7.5-7.5zm27.5 100.038h-20v-18.513h20zm0-33.512h-20v-18.013h20zm0-33.013h-20v-18.513h20zm35 66.525h-20v-18.513h20zm0-33.512h-20v-18.013h20zm0-33.013h-20v-18.513h20z"/><path d="m484.5 302.024c4.142 0 7.5-3.358 7.5-7.5v-41.368h12.5c4.142 0 7.5-3.358 7.5-7.5v-29.996c0-4.142-3.358-7.5-7.5-7.5h-14.211l-28.904-163.188c-.635-3.582-3.748-6.192-7.385-6.192h-151.05l-41.999-36.913c-2.831-2.489-7.071-2.489-9.902 0l-41.998 36.914h-37.797v-31.281c0-4.142-3.358-7.5-7.5-7.5h-68.254c-4.142 0-7.5 3.358-7.5 7.5v31.28h-30c-3.638 0-6.75 2.61-7.385 6.192l-15 84.689c-.722 4.079 1.999 7.971 6.077 8.693.443.078.882.116 1.317.116 3.569 0 6.732-2.558 7.376-6.193l13.903-78.498h127.696l-64.795 56.951c-1.494 1.313-2.406 3.167-2.533 5.151-.128 1.985.538 3.94 1.852 5.434l19.807 22.529c2.735 3.111 7.473 3.416 10.584.681l8.173-7.184v70.817h-128.127l7.148-40.36c.722-4.079-1.999-7.971-6.077-8.693-4.079-.719-7.971 1.999-8.693 6.077l-7.612 42.976h-14.211c-4.142 0-7.5 3.358-7.5 7.5v29.996c0 4.142 3.358 7.5 7.5 7.5h12.5v213.837h-12.5c-4.142 0-7.5 3.358-7.5 7.5v30.009c0 4.142 3.358 7.5 7.5 7.5h76.97c4.142 0 7.5-3.358 7.5-7.5s-3.358-7.5-7.5-7.5h-69.47v-15.008h89.993c12.254 0 23.783-4.536 32.463-12.772 8.863-8.41 26.837-13.844 45.793-13.844 18.955 0 36.93 5.434 45.793 13.844 8.68 8.236 20.208 12.772 32.462 12.772h235.496v15.008h-375.522c-4.142 0-7.5 3.358-7.5 7.5s3.358 7.5 7.5 7.5h383.022c4.142 0 7.5-3.358 7.5-7.5v-30.008c0-4.142-3.358-7.5-7.5-7.5h-12.5v-136.034c0-4.142-3.358-7.5-7.5-7.5s-7.5 3.358-7.5 7.5v136.034h-178.5v-159.389c0-4.142-3.358-7.5-7.5-7.5h-70c-4.142 0-7.5 3.358-7.5 7.5v136.896c-9.132-2.675-19.443-4.122-30.251-4.122-23.286 0-44.264 6.715-56.118 17.963-5.88 5.58-13.742 8.653-22.138 8.653h-69.993v-213.837h137.571c4.142 0 7.5-3.358 7.5-7.5v-121.497l75.929-66.736 26.571 23.354c3.111 2.734 7.85 2.429 10.584-.682s2.429-7.85-.682-10.584l-31.522-27.706c-2.831-2.489-7.071-2.489-9.902 0l-98.421 86.505-9.902-11.264 113.274-99.56 113.274 99.56-9.902 11.264-40.492-35.59c-3.111-2.734-7.85-2.429-10.584.682s-2.429 7.85.682 10.584l23.261 20.445v121.224c0 4.142 3.358 7.5 7.5 7.5h137.261v41.368c0 4.143 3.358 7.501 7.5 7.501zm-328.246-263.243h-53.254v-23.781h53.253v23.781zm107.246 276.322h20v18.513h-20zm-35 0h20v18.513h-20zm0 33.513h55v118.376h-21.996c-8.395 0-16.257-3.073-22.138-8.653-3.055-2.899-6.716-5.497-10.867-7.756v-101.967zm-63.429-110.46h-150.071v-14.996h150.071zm182.168-100.54 7.863 6.911c1.424 1.252 3.19 1.867 4.948 1.867 2.082 0 4.153-.862 5.636-2.548l19.807-22.529c1.313-1.494 1.979-3.449 1.852-5.434s-1.039-3.838-2.533-5.151l-64.795-56.951h127.696l27.343 154.379h-127.817zm0 100.54v-14.996h149.761v14.996z"/><path d="m221 133.592c-4.142 0-7.5 3.358-7.5 7.5v66.525c0 4.142 3.358 7.5 7.5 7.5h70c4.142 0 7.5-3.358 7.5-7.5v-66.525c0-4.142-3.358-7.5-7.5-7.5zm27.5 66.525h-20v-18.013h20zm0-33.012h-20v-18.513h20zm35 33.012h-20v-18.013h20zm0-33.012h-20v-18.513h20z"/></g></g></svg>