<svg clip-rule="evenodd" fill-rule="evenodd" height="512" image-rendering="optimizeQuality" shape-rendering="geometricPrecision" text-rendering="geometricPrecision" viewBox="0 0 1707 1707" width="512" xmlns="http://www.w3.org/2000/svg"><g id="Layer_x0020_1"><path d="m1127 1287h-349c-12 0-20-9-20-20v-931c0-11 8-20 20-20h349c11 0 20 9 20 20v931c0 11-9 20-20 20zm-329-40h309v-891h-309z"/><path d="m1616 1287h-489c-10 0-20-9-20-20v-373c0-11 10-20 20-20h489c11 0 20 9 20 20v373c0 11-9 20-20 20zm-469-40h449v-333h-449z"/><path d="m1665 914h-538c-11 0-20-9-20-20v-125c0-11 9-20 20-20h451c7 0 13 3 17 8l87 125c9 13 0 32-17 32zm-518-40h480l-59-85h-421z"/><path d="m778 1287h-669c-11 0-20-9-20-20v-624c0-11 9-20 20-20h669c11 0 20 9 20 20v624c0 11-9 20-20 20zm-649-40h629v-584h-629z"/><path d="m778 663h-737c-16 0-25-18-16-32l119-171c3-5 10-8 16-8h618c11 0 20 8 20 20v171c0 11-9 20-20 20zm-698-40h678v-131h-587z"/><path d="m1687 1391h-1667c-11 0-20-9-20-20v-104c0-11 9-20 20-20h1667c11 0 20 9 20 20v104c0 11-9 20-20 20zm-1647-40h1627v-64h-1627z"/><path d="m381 1138h-160c-11 0-20-9-20-20v-127c0-11 9-20 20-20h160c12 0 20 9 20 20v127c0 11-9 20-20 20zm-140-40h120v-87h-120z"/><path d="m665 1138h-160c-11 0-20-9-20-20v-127c0-11 9-20 20-20h160c12 0 20 9 20 20v127c0 11-9 20-20 20zm-140-40h120v-87h-120z"/><path d="m381 898h-160c-11 0-20-9-20-20v-127c0-11 9-20 20-20h160c12 0 20 9 20 20v127c0 11-9 20-20 20zm-140-40h120v-87h-120z"/><path d="m665 898h-160c-11 0-20-9-20-20v-127c0-11 9-20 20-20h160c12 0 20 9 20 20v127c0 11-9 20-20 20zm-140-40h120v-87h-120z"/><path d="m1482 1287h-221c-11 0-20-9-20-20v-140c0-72 59-130 131-130s131 58 131 130v140c-1 11-9 20-21 20zm-201-40h181v-120c0-50-40-90-90-90s-91 40-91 90z"/><path d="m1127 552h-207c-11 0-20-8-20-20v-80c0-11 9-20 20-20h207c11 0 20 9 20 20v81c0 11-9 19-20 19zm-187-40h167v-40h-167z"/><path d="m1127 759h-207c-11 0-20-9-20-20v-81c0-11 9-20 20-20h207c11 0 20 9 20 20v81c0 11-9 20-20 20zm-187-40h167v-41h-167z"/><path d="m1127 965h-207c-11 0-20-9-20-20v-81c0-11 9-20 20-20h207c11 0 20 9 20 20v81c0 11-9 20-20 20zm-187-40h167v-41h-167z"/><path d="m1127 1171h-207c-11 0-20-9-20-20v-81c0-11 9-20 20-20h207c11 0 20 9 20 20v81c0 11-9 20-20 20zm-187-40h167v-41h-167z"/><path d="m920 1050h187v-85h-187c-11 0-20-9-20-20v-81c0-11 9-20 20-20h187v-85h-187c-11 0-20-9-20-20v-81c0-11 9-20 20-20h187v-86h-187c-11 0-20-8-20-20v-80c0-11 9-20 20-20h187v-76h-309v891h309v-76h-187c-11 0-20-9-20-20v-81c0-11 9-20 20-20z" fill="#e80054"/><g fill="#ffc344"><path d="m940 925h167v-41h-167z"/><path d="m940 719h167v-41h-167z"/><path d="m940 512h167v-40h-167z"/><path d="m1107 1090h-167v41h167z"/></g><path d="m1147 945v302h94v-120c0-72 59-130 131-130s131 58 131 130v120h93v-333h-449z" fill="#f9e4c8"/><path d="m1372 1037c-50 0-91 40-91 90v120h181v-120c0-50-40-90-90-90z" fill="#65aecb"/><path d="m1147 874h480l-59-85h-421z" fill="#6a7e99"/><path d="m758 623v-131h-587l-91 131z" fill="#6a7e99"/><path d="m758 663h-629v584h629zm-93 68c12 0 20 9 20 20v127c0 11-9 20-20 20h-160c-11 0-20-9-20-20v-127c0-11 9-20 20-20zm-264 20v127c0 11-9 20-20 20h-160c-11 0-20-9-20-20v-127c0-11 9-20 20-20h160c12 0 20 9 20 20zm104 220h160c12 0 20 9 20 20v127c0 11-9 20-20 20h-160c-11 0-20-9-20-20v-127c0-11 9-20 20-20zm-104 20v127c0 11-9 20-20 20h-160c-11 0-20-9-20-20v-127c0-11 9-20 20-20h160c12 0 20 9 20 20z" fill="#f9e4c8"/><path d="m645 771h-120v87h120z" fill="#65aecb"/><path d="m361 858v-87h-120v87z" fill="#65aecb"/><path d="m361 1011h-120v87h120z" fill="#65aecb"/><path d="m525 1011v87h120v-87z" fill="#65aecb"/><path d="m1667 1287h-1627v64h1627z" fill="#6a7e99"/></g></svg>