<?xml version="1.0" encoding="UTF-8" standalone="no"?>
<!-- Created with Inkscape (http://www.inkscape.org/) -->

<svg
   xmlns:dc="http://purl.org/dc/elements/1.1/"
   xmlns:cc="http://creativecommons.org/ns#"
   xmlns:rdf="http://www.w3.org/1999/02/22-rdf-syntax-ns#"
   xmlns:svg="http://www.w3.org/2000/svg"
   xmlns="http://www.w3.org/2000/svg"
   version="1.1"
   width="556.32501"
   height="126.3"
   id="svg2"
   xml:space="preserve"><metadata
     id="metadata8"><rdf:RDF><cc:Work
         rdf:about=""><dc:format>image/svg+xml</dc:format><dc:type
           rdf:resource="http://purl.org/dc/dcmitype/StillImage" /><dc:title></dc:title></cc:Work></rdf:RDF></metadata><defs
     id="defs6"><clipPath
       id="clipPath18"><path
         d="m 0,0 4450.59,0 0,1010 L 0,1010 0,0 z"
         id="path20" /></clipPath></defs><g
     transform="matrix(1.25,0,0,-1.25,0,126.3)"
     id="g10"><g
       transform="scale(0.1,0.1)"
       id="g12"><g
         id="g14"><g
           clip-path="url(#clipPath18)"
           id="g16"><path
             d="m 1456.44,263.098 -78.23,0 0,389.789 -172.41,-3.672 0,-386.117 -78.27,0 0,444.09 78.27,0 0,-12.321 c 30.59,3.02 61.4,6.207 92.37,9.574 37.67,3.649 68.65,5.485 92.99,5.485 43.53,0 65.28,-16.59 65.28,-49.75 l 0,-397.078"
             id="path22"
             style="fill:#231f20;fill-opacity:1;fill-rule:nonzero;stroke:none" /><path
             d="m 1827.1,522.797 0,133.715 -168.27,0 0,-133.715 168.27,0 z m 75.89,-208.106 c 0,-34.394 -21.96,-51.593 -65.88,-51.593 l -188.29,0 c -43.92,0 -65.89,17.199 -65.89,51.593 l 0,340.907 c 0,34.39 21.97,51.59 65.89,51.59 l 188.29,0 c 43.92,0 65.88,-17.2 65.88,-51.59 l 0,-159.715 -26.45,-21.445 -217.71,0 0,-160.657 168.27,0 0,81.223 75.89,0 0,-80.313"
             id="path24"
             style="fill:#231f20;fill-opacity:1;fill-rule:nonzero;stroke:none" /><path
             d="m 2331.9,561.137 -77.06,0 0,91.75 -144.14,-3.672 0,-386.117 -78.27,0 0,444.09 78.27,0 0,-12.321 c 25.88,3.02 51.94,6.207 78.26,9.574 31.37,3.649 57.43,5.485 78.23,5.485 43.14,0 64.71,-16.59 64.71,-49.75 l 0,-99.039"
             id="path26"
             style="fill:#231f20;fill-opacity:1;fill-rule:nonzero;stroke:none" /><path
             d="m 2739.68,314.691 c 0,-34.394 -22.18,-51.593 -66.49,-51.593 l -179.49,0 c -44.32,0 -66.44,17.199 -66.44,51.593 l 0,100.852 77.07,0 0,-99.934 158.25,0 0,88.536 -204.74,130.058 c -19.62,12.168 -29.41,27.988 -29.41,47.473 l 0,73.922 c 0,34.39 22.13,51.59 66.48,51.59 l 177.07,0 c 44.36,0 66.49,-17.2 66.49,-51.59 l 0,-88.528 -75.89,0 0,87.625 -158.25,0 0,-77.578 206.49,-130.082 c 19.24,-11.863 28.86,-28 28.86,-48.367 l 0,-83.977"
             id="path28"
             style="fill:#231f20;fill-opacity:1;fill-rule:nonzero;stroke:none" /><path
             d="m 3107.98,522.797 0,133.715 -168.28,0 0,-133.715 168.28,0 z m 75.89,-208.106 c 0,-34.394 -21.97,-51.593 -65.88,-51.593 l -188.3,0 c -43.92,0 -65.88,17.199 -65.88,51.593 l 0,340.907 c 0,34.39 21.96,51.59 65.88,51.59 l 188.3,0 c 43.91,0 65.88,-17.2 65.88,-51.59 l 0,-159.715 -26.5,-21.445 -217.67,0 0,-160.657 168.28,0 0,81.223 75.89,0 0,-80.313"
             id="path30"
             style="fill:#231f20;fill-opacity:1;fill-rule:nonzero;stroke:none" /><path
             d="m 3612.78,561.137 -77.07,0 0,91.75 -144.14,-3.672 0,-386.117 -78.27,0 0,444.09 78.27,0 0,-12.321 c 25.89,3.02 51.95,6.207 78.22,9.574 31.41,3.649 57.48,5.485 78.28,5.485 43.13,0 64.71,-16.59 64.71,-49.75 l 0,-99.039"
             id="path32"
             style="fill:#231f20;fill-opacity:1;fill-rule:nonzero;stroke:none" /><path
             d="m 4034.62,707.188 -141.79,-444.997 -71.18,0 -142.38,444.997 80.59,0 97.68,-349.594 98.86,349.594 78.22,0"
             id="path34"
             style="fill:#231f20;fill-opacity:1;fill-rule:nonzero;stroke:none" /><path
             d="m 4374.69,522.797 0,133.715 -168.27,0 0,-133.715 168.27,0 z m 75.9,-208.106 c 0,-34.394 -21.97,-51.593 -65.88,-51.593 l -188.29,0 c -43.92,0 -65.88,17.199 -65.88,51.593 l 0,340.907 c 0,34.39 21.96,51.59 65.88,51.59 l 188.29,0 c 43.91,0 65.88,-17.2 65.88,-51.59 l 0,-159.715 -26.45,-21.445 -217.72,0 0,-160.657 168.27,0 0,81.223 75.9,0 0,-80.313"
             id="path36"
             style="fill:#231f20;fill-opacity:1;fill-rule:nonzero;stroke:none" /><path
             d="m 897.859,495.695 -26.57,-21.519 -218.617,0 0,-161.352 168.961,0 0,81.594 76.226,0 0,-80.664 c 0,-34.531 -22.062,-51.797 -66.179,-51.797 l -189.086,0 c -44.117,0 -66.164,17.266 -66.164,51.797 l 0,342.363 c 0,34.528 22.047,51.801 66.164,51.801 l 189.086,0 c 44.117,0 66.179,-17.273 66.179,-51.801 l 0,-160.422 z m -129.519,514.675 -526.293,0 C 108.383,1010.37 0,898.898 0,761.332 L 0,249.047 C 0,111.477 108.383,0 242.047,0 L 768.34,0 c 133.668,0 242.05,111.477 242.05,249.047 l 0,512.285 c 0,137.566 -108.382,249.038 -242.05,249.038 z m -115.668,-487.612 168.961,0 0,134.277 -168.961,0 0,-134.277"
             id="path38"
             style="fill:#2d923e;fill-opacity:1;fill-rule:nonzero;stroke:none" /></g></g></g></g></svg>